<svg width="230" height="270" viewBox="0 0 230 270" fill="none" xmlns="http://www.w3.org/2000/svg">
<path d="M45.3762 214.48C47.3562 214.48 48.2862 215.74 48.6462 216.97L52.2162 215.77C51.5862 213.28 49.3062 210.79 45.2862 210.79C40.9962 210.79 37.6362 214.06 37.6362 218.62C37.6362 223.15 41.0562 226.45 45.4062 226.45C49.3362 226.45 51.6462 223.93 52.3062 221.47L48.7962 220.3C48.4662 221.44 47.4462 222.79 45.4062 222.79C43.3662 222.79 41.6262 221.29 41.6262 218.62C41.6262 215.95 43.3362 214.48 45.3762 214.48ZM60.9739 222.82C59.0239 222.82 57.2239 221.38 57.2239 218.62C57.2239 215.83 59.0239 214.42 60.9739 214.42C62.9239 214.42 64.7239 215.83 64.7239 218.62C64.7239 221.41 62.9239 222.82 60.9739 222.82ZM60.9739 210.79C56.5639 210.79 53.2339 214.06 53.2339 218.62C53.2339 223.15 56.5639 226.45 60.9739 226.45C65.3839 226.45 68.7139 223.15 68.7139 218.62C68.7139 214.06 65.3839 210.79 60.9739 210.79ZM80.1134 211.18C79.8134 211.15 79.5134 211.12 79.1834 211.12C77.9234 211.12 75.8834 211.48 74.9834 213.43V211.24H71.1134V226H75.1034V219.25C75.1034 216.07 76.8734 215.08 78.9134 215.08C79.2734 215.08 79.6634 215.11 80.1134 215.2V211.18ZM88.6536 222.82C86.7036 222.82 84.9036 221.38 84.9036 218.62C84.9036 215.83 86.7036 214.42 88.6536 214.42C90.6036 214.42 92.4036 215.83 92.4036 218.62C92.4036 221.41 90.6036 222.82 88.6536 222.82ZM88.6536 210.79C84.2436 210.79 80.9136 214.06 80.9136 218.62C80.9136 223.15 84.2436 226.45 88.6536 226.45C93.0636 226.45 96.3936 223.15 96.3936 218.62C96.3936 214.06 93.0636 210.79 88.6536 210.79ZM102.783 217.51C102.783 215.8 103.803 214.45 105.543 214.45C107.463 214.45 108.273 215.74 108.273 217.39V226H112.263V216.7C112.263 213.46 110.583 210.85 106.923 210.85C105.333 210.85 103.563 211.54 102.663 213.07V211.24H98.7931V226H102.783V217.51ZM114.663 221.98C114.663 224.29 116.583 226.42 119.733 226.42C121.923 226.42 123.333 225.4 124.083 224.23C124.083 224.8 124.143 225.61 124.233 226H127.893C127.803 225.49 127.713 224.44 127.713 223.66V216.4C127.713 213.43 125.973 210.79 121.293 210.79C117.333 210.79 115.203 213.34 114.963 215.65L118.503 216.4C118.623 215.11 119.583 214 121.323 214C123.003 214 123.813 214.87 123.813 215.92C123.813 216.43 123.543 216.85 122.703 216.97L119.073 217.51C116.613 217.87 114.663 219.34 114.663 221.98ZM120.573 223.45C119.283 223.45 118.653 222.61 118.653 221.74C118.653 220.6 119.463 220.03 120.483 219.88L123.813 219.37V220.03C123.813 222.64 122.253 223.45 120.573 223.45ZM144.641 211.24H140.441L136.931 221.14L133.271 211.24H128.891L134.921 226H138.911L144.641 211.24ZM150.308 226V211.24H146.318V226H150.308ZM145.838 206.41C145.838 207.73 146.948 208.84 148.298 208.84C149.678 208.84 150.758 207.73 150.758 206.41C150.758 205.03 149.678 203.92 148.298 203.92C146.948 203.92 145.838 205.03 145.838 206.41ZM162.83 211.18C162.53 211.15 162.23 211.12 161.9 211.12C160.64 211.12 158.6 211.48 157.7 213.43V211.24H153.83V226H157.82V219.25C157.82 216.07 159.59 215.08 161.63 215.08C161.99 215.08 162.38 215.11 162.83 215.2V211.18ZM174.518 226H178.328C178.268 225.49 178.178 224.47 178.178 223.33V211.24H174.188V219.82C174.188 221.53 173.168 222.73 171.398 222.73C169.538 222.73 168.698 221.41 168.698 219.76V211.24H164.708V220.57C164.708 223.78 166.748 226.39 170.318 226.39C171.878 226.39 173.588 225.79 174.398 224.41C174.398 225.01 174.458 225.7 174.518 226ZM180.426 221.89C180.606 223.57 182.136 226.45 186.576 226.45C190.446 226.45 192.306 223.99 192.306 221.59C192.306 219.43 190.836 217.66 187.926 217.06L185.826 216.61C185.016 216.46 184.476 216.01 184.476 215.29C184.476 214.45 185.316 213.82 186.366 213.82C188.046 213.82 188.676 214.93 188.796 215.8L192.126 215.05C191.946 213.46 190.536 210.79 186.336 210.79C183.156 210.79 180.816 212.98 180.816 215.62C180.816 217.69 182.106 219.4 184.956 220.03L186.906 220.48C188.046 220.72 188.496 221.26 188.496 221.92C188.496 222.7 187.866 223.39 186.546 223.39C184.806 223.39 183.936 222.31 183.846 221.14L180.426 221.89ZM56.9891 251.89C57.1691 253.57 58.6991 256.45 63.1391 256.45C67.0091 256.45 68.8691 253.99 68.8691 251.59C68.8691 249.43 67.3991 247.66 64.4891 247.06L62.3891 246.61C61.5791 246.46 61.0391 246.01 61.0391 245.29C61.0391 244.45 61.8791 243.82 62.9291 243.82C64.6091 243.82 65.2391 244.93 65.3591 245.8L68.6891 245.05C68.5091 243.46 67.0991 240.79 62.8991 240.79C59.7191 240.79 57.3791 242.98 57.3791 245.62C57.3791 247.69 58.6691 249.4 61.5191 250.03L63.4691 250.48C64.6091 250.72 65.0591 251.26 65.0591 251.92C65.0591 252.7 64.4291 253.39 63.1091 253.39C61.3691 253.39 60.4991 252.31 60.4091 251.14L56.9891 251.89ZM76.2473 236.83H72.6473V238.9C72.6473 240.22 71.9273 241.24 70.3673 241.24H69.6173V244.78H72.2873V251.65C72.2873 254.5 74.0873 256.21 76.9673 256.21C78.1373 256.21 78.8573 256 79.2173 255.85V252.55C79.0073 252.61 78.4673 252.67 77.9873 252.67C76.8473 252.67 76.2473 252.25 76.2473 250.96V244.78H79.2173V241.24H76.2473V236.83ZM81.0445 251.98C81.0445 254.29 82.9645 256.42 86.1145 256.42C88.3045 256.42 89.7145 255.4 90.4645 254.23C90.4645 254.8 90.5245 255.61 90.6145 256H94.2745C94.1845 255.49 94.0945 254.44 94.0945 253.66V246.4C94.0945 243.43 92.3545 240.79 87.6745 240.79C83.7145 240.79 81.5845 243.34 81.3445 245.65L84.8845 246.4C85.0045 245.11 85.9645 244 87.7045 244C89.3845 244 90.1945 244.87 90.1945 245.92C90.1945 246.43 89.9245 246.85 89.0845 246.97L85.4545 247.51C82.9945 247.87 81.0445 249.34 81.0445 251.98ZM86.9545 253.45C85.6645 253.45 85.0345 252.61 85.0345 251.74C85.0345 250.6 85.8445 250.03 86.8645 249.88L90.1945 249.37V250.03C90.1945 252.64 88.6345 253.45 86.9545 253.45ZM102.198 236.83H98.5984V238.9C98.5984 240.22 97.8784 241.24 96.3184 241.24H95.5684V244.78H98.2384V251.65C98.2384 254.5 100.038 256.21 102.918 256.21C104.088 256.21 104.808 256 105.168 255.85V252.55C104.958 252.61 104.418 252.67 103.938 252.67C102.798 252.67 102.198 252.25 102.198 250.96V244.78H105.168V241.24H102.198V236.83ZM111.798 256V241.24H107.808V256H111.798ZM107.328 236.41C107.328 237.73 108.438 238.84 109.788 238.84C111.168 238.84 112.248 237.73 112.248 236.41C112.248 235.03 111.168 233.92 109.788 233.92C108.438 233.92 107.328 235.03 107.328 236.41ZM114.059 251.89C114.239 253.57 115.769 256.45 120.209 256.45C124.079 256.45 125.939 253.99 125.939 251.59C125.939 249.43 124.469 247.66 121.559 247.06L119.459 246.61C118.649 246.46 118.109 246.01 118.109 245.29C118.109 244.45 118.949 243.82 119.999 243.82C121.679 243.82 122.309 244.93 122.429 245.8L125.759 245.05C125.579 243.46 124.169 240.79 119.969 240.79C116.789 240.79 114.449 242.98 114.449 245.62C114.449 247.69 115.739 249.4 118.589 250.03L120.539 250.48C121.679 250.72 122.129 251.26 122.129 251.92C122.129 252.7 121.499 253.39 120.179 253.39C118.439 253.39 117.569 252.31 117.479 251.14L114.059 251.89ZM133.318 236.83H129.718V238.9C129.718 240.22 128.998 241.24 127.438 241.24H126.688V244.78H129.358V251.65C129.358 254.5 131.158 256.21 134.038 256.21C135.208 256.21 135.928 256 136.288 255.85V252.55C136.078 252.61 135.538 252.67 135.058 252.67C133.918 252.67 133.318 252.25 133.318 250.96V244.78H136.288V241.24H133.318V236.83ZM142.917 256V241.24H138.927V256H142.917ZM138.447 236.41C138.447 237.73 139.557 238.84 140.907 238.84C142.287 238.84 143.367 237.73 143.367 236.41C143.367 235.03 142.287 233.92 140.907 233.92C139.557 233.92 138.447 235.03 138.447 236.41ZM153.069 244.48C155.049 244.48 155.979 245.74 156.339 246.97L159.909 245.77C159.279 243.28 156.999 240.79 152.979 240.79C148.689 240.79 145.329 244.06 145.329 248.62C145.329 253.15 148.749 256.45 153.099 256.45C157.029 256.45 159.339 253.93 159.999 251.47L156.489 250.3C156.159 251.44 155.139 252.79 153.099 252.79C151.059 252.79 149.319 251.29 149.319 248.62C149.319 245.95 151.029 244.48 153.069 244.48ZM160.923 251.89C161.103 253.57 162.633 256.45 167.073 256.45C170.943 256.45 172.803 253.99 172.803 251.59C172.803 249.43 171.333 247.66 168.423 247.06L166.323 246.61C165.513 246.46 164.973 246.01 164.973 245.29C164.973 244.45 165.813 243.82 166.863 243.82C168.543 243.82 169.173 244.93 169.293 245.8L172.623 245.05C172.443 243.46 171.033 240.79 166.833 240.79C163.653 240.79 161.313 242.98 161.313 245.62C161.313 247.69 162.603 249.4 165.453 250.03L167.403 250.48C168.543 250.72 168.993 251.26 168.993 251.92C168.993 252.7 168.363 253.39 167.043 253.39C165.303 253.39 164.433 252.31 164.343 251.14L160.923 251.89Z" fill="#EA5068"/>
<circle cx="94.6665" cy="109.167" r="70" fill="#EA5068"/>
<mask id="mask0" mask-type="alpha" maskUnits="userSpaceOnUse" x="20" y="10" width="210" height="170">
<path fill-rule="evenodd" clip-rule="evenodd" d="M230 10H20V109.167H24.6672C24.8243 147.854 56.2345 179.167 94.9583 179.167C133.682 179.167 165.092 147.854 165.249 109.167H230V10Z" fill="#C4C4C4"/>
</mask>
<g mask="url(#mask0)">
<path d="M87.4076 77.0081C101.476 77.1452 115.975 89.7539 115.975 89.7539C115.975 89.7539 99.5823 128.88 102.221 136.773C104.17 142.605 120.884 136.039 120.884 136.039L126.316 158.723C113.125 166.526 100.544 176.196 88.1128 180.382C79.5693 183.259 70.7983 180.369 64.804 174.317C56.67 166.105 54.4749 148.84 55.0997 138.706C59.5289 105.491 74.3958 76.8815 87.4076 77.0081Z" fill="#FCD046"/>
<path d="M152.778 102.827C147.549 86.5151 145.21 77.1235 145.21 77.1235C145.21 77.1235 138.432 76.4614 128.942 76.1441C126.083 78.2627 121.732 80.6859 116.569 80.6859C107.446 80.6859 103.171 76.5786 103.154 76.5623C96.1355 77.1065 89.2679 78.086 83.4894 79.7543C72.0182 83.0653 72.3157 90.5874 68.8781 99.5451C63.4916 113.58 74.2646 191.583 74.2646 191.583L116.137 216.613L143.801 193.032C143.8 193.032 156.651 114.911 152.778 102.827Z" fill="#FCD046"/>
<path d="M190.998 85.4214C191.594 75.864 177.231 73.8294 175.505 65.3104C174.805 61.8553 176.501 58.3774 178.491 55.4369C180.482 52.4969 182.865 49.6887 183.81 46.289C185.72 39.4226 181.115 32.2797 175.283 27.9945C169.574 23.8015 162.519 21.3737 155.372 21.1421C148.732 20.9275 142.146 22.5532 135.503 22.4424C132.1 22.3858 129.468 20.97 125.032 17.6818C124.649 17.7985 124.167 17.9997 123.617 18.2645C114.938 22.4319 109.221 30.8651 108.469 40.2574C108.269 42.7441 108.218 45.2379 108.374 47.7374C108.82 54.8769 111.392 62.473 117.535 66.3965C123.796 70.3959 130.821 70.3089 136.934 74.52C142.031 78.0311 145.897 83.5938 149.821 88.3211C158.532 98.8135 176.134 101.266 187.11 92.4925C189.313 90.7303 190.825 88.1922 190.998 85.4214Z" fill="#0E153E"/>
<path d="M120.844 18.1421C122.236 18.6402 123.576 19.356 124.834 20.315C136.082 28.8871 131.553 48.1452 123.261 57.4552C118.671 62.609 111.476 65.5052 104.749 63.7821C94.9088 61.2609 90.8471 51.1045 91.795 41.6084C92.502 34.5326 95.7611 27.5932 101.166 22.9382C106.566 18.2896 114.266 15.7836 120.844 18.1421Z" fill="#ED9895"/>
<path d="M126.067 51.5075C128.041 53.0604 131.238 53.45 133.553 52.3919C135.867 51.3337 137.608 48.9333 137.958 46.317C138.272 43.9697 137.397 41.4234 135.517 40.1955C133.637 38.967 130.533 39.3637 129.247 41.3354L126.067 51.5075Z" fill="#ED9895"/>
<path d="M129.454 74.7307L128.051 45.1603L106.492 47.7287L105.923 76.8989C113.74 75.9802 121.593 75.2971 129.454 74.7307Z" fill="#ED9895"/>
<path d="M106.084 68.6163V64.0634C106.084 64.0634 115.678 65.9207 123.26 57.4554C123.261 57.4554 119.339 66.511 106.084 68.6163Z" fill="#201B41"/>
<path d="M130.685 47.5222C132.092 47.5222 133.233 46.6665 133.233 45.6095C133.233 44.8173 132.591 44.1377 131.676 43.8472" stroke="#E27E7C" stroke-width="1.7621" stroke-miterlimit="10" stroke-linecap="round"/>
<path d="M109.573 46.5545C109.717 47.6774 111.256 48.4159 113.012 48.2036C114.768 47.9913 116.074 46.9086 115.931 45.7851C115.787 44.6616 114.248 43.9231 112.492 44.136C110.737 44.3478 109.43 45.431 109.573 46.5545Z" fill="#F38E8C"/>
<path d="M100.238 47.0287L99.0049 45.82C100.31 45.309 102.115 43.5351 102.115 43.5351L101.469 46.6542C101.351 47.2217 100.652 47.4347 100.238 47.0287Z" fill="#EA5068" stroke="#EA5068" stroke-width="1.7216" stroke-miterlimit="10"/>
<path d="M96.0216 44.8098C96.0216 45.9414 94.5872 46.859 92.8179 46.859C92.4528 46.859 92.1068 46.8112 91.7802 46.7388C91.6623 45.4648 91.6431 44.1774 91.7096 42.8929C92.0561 42.8107 92.4265 42.7593 92.8179 42.7593C94.5872 42.7599 96.0216 43.6775 96.0216 44.8098Z" fill="#F38E8C"/>
<path d="M107.851 38.2688C107.851 38.2688 107.83 38.4654 107.81 38.8154C107.788 39.1642 107.778 39.6659 107.816 40.2574C107.835 40.5531 107.874 40.8693 107.938 41.1959C107.973 41.3575 108.022 41.5185 108.066 41.6848C108.136 41.8359 108.176 42.0109 108.264 42.1538C108.409 42.4664 108.647 42.7021 108.918 42.8754C109.21 42.9955 109.557 43.0795 109.903 43.0084C110 42.992 110.116 42.9909 110.196 42.964L110.417 42.8777C110.568 42.8479 110.715 42.7062 110.865 42.6309C111.001 42.5178 111.137 42.4005 111.26 42.2728C111.369 42.1287 111.499 42.0074 111.59 41.8516C111.99 41.2613 112.264 40.6208 112.452 40.0596C112.64 39.4967 112.768 39.0125 112.839 38.6707C112.914 38.3294 112.947 38.1369 112.947 38.1369C112.965 38.0238 113.073 37.9462 113.186 37.9649C113.291 37.9818 113.365 38.0774 113.36 38.1819C113.36 38.1819 113.348 38.3942 113.297 38.7529C113.243 39.1117 113.162 39.625 112.984 40.2259C112.803 40.8232 112.561 41.5273 112.11 42.2057C112.009 42.3801 111.858 42.5329 111.729 42.7004C111.584 42.8561 111.419 43.0043 111.249 43.1449C111.047 43.2569 110.893 43.412 110.645 43.4838L110.295 43.6069C110.182 43.6395 110.091 43.6389 109.987 43.6564C109.527 43.734 109.046 43.6308 108.615 43.4272C108.209 43.1717 107.896 42.8112 107.722 42.4262C107.618 42.2389 107.571 42.0424 107.502 41.8551C107.46 41.6644 107.414 41.4783 107.385 41.2969C107.332 40.934 107.309 40.5922 107.303 40.2778C107.292 39.6495 107.359 39.1344 107.406 38.7751C107.457 38.4175 107.505 38.2128 107.505 38.2128C107.526 38.1177 107.62 38.0576 107.714 38.078C107.802 38.0973 107.859 38.1813 107.851 38.2688Z" fill="#212B45"/>
<path d="M93.9679 37.5479C93.9679 37.5479 93.9592 37.7141 93.9446 38.0058C93.93 38.2974 93.9318 38.7169 93.9609 39.2109C93.9767 39.4577 94.0029 39.7237 94.0537 39.9967C94.0997 40.2714 94.1843 40.5456 94.2817 40.8145C94.4072 41.0578 94.539 41.3261 94.7583 41.4498C94.9607 41.5839 95.2314 41.6481 95.4939 41.5956C95.5727 41.5804 95.6753 41.5799 95.7337 41.5548C95.7873 41.5274 95.8404 41.5034 95.8952 41.4824C96.0055 41.4469 96.1245 41.3354 96.2377 41.2637C96.4465 41.0648 96.639 40.8384 96.7848 40.5789C96.9365 40.3269 97.0654 40.062 97.1698 39.8024C97.2801 39.5452 97.3629 39.2897 97.4352 39.0529C97.5764 38.578 97.6791 38.172 97.7339 37.8856C97.7887 37.6015 97.8197 37.4388 97.8197 37.4388L97.8208 37.4324C97.8424 37.3198 97.9515 37.2457 98.0647 37.2673C98.1667 37.2871 98.2368 37.3781 98.2333 37.4784C98.2333 37.4784 98.2274 37.6564 98.1936 37.9585C98.1568 38.2601 98.102 38.6918 97.9731 39.2004C97.9089 39.4548 97.8342 39.7301 97.7281 40.0159C97.6283 40.3029 97.5047 40.6045 97.3273 40.8985C97.1634 41.1972 96.9342 41.4854 96.6588 41.7479C96.4967 41.8604 96.3631 41.9911 96.156 42.0751C96.0539 42.1183 95.9501 42.1585 95.8462 42.1953C95.7459 42.2274 95.6736 42.2256 95.5855 42.2419C95.1783 42.309 94.7391 42.2058 94.3955 41.9631C94.0338 41.7234 93.8711 41.3582 93.7194 41.0403C93.4762 40.3759 93.4563 39.7499 93.4476 39.2261C93.4452 38.7005 93.5001 38.2694 93.5392 37.9684C93.5812 37.6686 93.6197 37.4971 93.6197 37.4971C93.6407 37.402 93.7352 37.3419 93.8302 37.3635C93.9154 37.3834 93.9726 37.4633 93.9679 37.5479Z" fill="#212B45"/>
<path d="M120.704 46.7761C120.704 46.7761 117.798 46.7061 114.863 47.2818C110.846 48.0705 106.009 49.5486 101.496 49.3025C96.8012 49.047 94.1686 44.6959 91.0705 45.127C91.0705 45.127 91.0145 47.9591 91.0705 48.5745C92.1771 60.7481 101.805 70.4436 117.848 62.1971C118.154 62.0401 118.481 61.9188 118.801 61.7689C118.801 61.7689 123.296 52.5184 120.704 46.7761Z" fill="#F1EDE1"/>
<path d="M129.471 40.7108L120.064 47.282L119.843 49.6521L129.692 41.6803L129.471 40.7108Z" fill="#F1EDE1"/>
<path d="M128.585 52.8836L118.847 59.4554L118.811 61.8407L128.585 54.5V52.8836Z" fill="#F1EDE1"/>
<path d="M93.3723 33.1706C93.3723 33.1706 106.035 34.4032 116.347 23.1326C116.347 23.1326 121.149 45.9625 129.692 41.6797L133.894 37.2207C133.894 37.2207 136.065 14.3272 114.176 15.9121C114.176 15.9127 100.065 16.4412 93.3723 33.1706Z" fill="#0E153E"/>
<path d="M219.163 71.8105C219.163 71.8105 210.839 80.9648 188.944 80.1685C167.049 79.3723 142.873 70.0547 136.195 76.4428C136.195 76.4428 118.625 80.2047 123.403 74.3253C128.181 68.4464 143.688 53.5143 158.067 55.6983C172.446 57.8823 189.28 69.8668 208.22 60.0692C208.219 60.0692 219.369 64.6787 219.163 71.8105Z" fill="#EA5068"/>
<path d="M134.158 63.6725C134.158 63.6725 106.304 67.8515 102.484 70.0168C98.6637 72.1822 97.7321 84.207 100.805 86.4032C111.365 93.9522 137.856 79.6179 138.871 71.9698C139.886 64.3229 138.511 62.9159 134.158 63.6725Z" fill="#EA5068"/>
<path d="M130.852 130.487C124.865 132.747 117.579 134.181 114.86 129.313C109.932 120.493 105.148 110.027 101.619 85.4535C101.601 85.3322 101.527 72.3892 101.527 72.3886C101.527 72.3886 104.317 63.8918 107.644 62.483C107.54 61.9633 106.948 61.2329 106.246 61.2749C103.49 61.4394 101.602 63.869 101.602 63.869C101.602 63.869 101.357 50.6612 100.219 51.1424C99.0818 51.6243 98.4763 58.528 98.4763 58.528C98.4763 58.528 98.2903 48.0035 97.3248 48.8365C96.9521 49.1574 97.3248 48.8365 96.0637 57.9552C96.0637 57.9552 94.6975 49.8241 94.0226 51.2305C93.1744 52.9974 93.1254 59.1621 93.1254 59.1621C93.1254 59.1621 91.9949 52.8895 91.5061 54.0603C91.0173 55.2316 91.5178 71.9966 91.5178 71.9966C91.5178 71.9966 88.996 94.5681 88.9336 97.9007C88.9633 97.9398 88.9948 97.966 89.0252 98.0045C88.7003 118.752 91.6064 143.457 99.8548 149.998C106.857 155.55 125.763 152.808 136.106 150.761L130.852 130.487Z" fill="#ED9895"/>
<path d="M160.605 84.6648C153.874 76.1855 137.448 76.5716 137.448 76.5716C137.448 76.5716 125.983 118.436 117.828 120.86C111.803 122.651 106.589 81.5731 106.589 81.5731L85.7003 88.1922C83.119 129.121 85.6209 144.815 89.2306 157.128C91.7115 165.591 99.1747 170.927 107.705 172.235C119.281 174.009 135.067 165.854 143.236 159.542C168.64 136.955 168.561 94.6882 160.605 84.6648Z" fill="#FCD046"/>
<path d="M117.827 120.86C113.94 115.049 111.142 105.153 109.845 101.367" stroke="url(#paint0_linear)" stroke-width="2.8767" stroke-miterlimit="10" stroke-linecap="round"/>
<path d="M84.5939 100.36C84.5939 100.36 75.2885 166.669 103.724 172.414" stroke="url(#paint1_linear)" stroke-width="2.8767" stroke-miterlimit="10" stroke-linecap="round"/>
<path d="M219.164 71.8105C219.164 71.8105 210.839 80.9648 188.945 80.1685C167.049 79.3723 142.873 70.0547 136.195 76.4427C136.195 76.4427 118.625 80.2047 123.404 74.3252C128.182 68.4464 143.688 53.5143 158.067 55.6983C172.446 57.8823 189.28 69.8668 208.22 60.0692C208.22 60.0692 219.369 64.6787 219.164 71.8105Z" fill="#EA5068"/>
</g>
<defs>
<linearGradient id="paint0_linear" x1="109.801" y1="111.433" x2="117.872" y2="110.794" gradientUnits="userSpaceOnUse">
<stop stop-color="#F57069"/>
<stop offset="0.4991" stop-color="#ED6762"/>
<stop offset="1" stop-color="#DF5857"/>
</linearGradient>
<linearGradient id="paint1_linear" x1="82.8911" y1="137.279" x2="101.667" y2="135.793" gradientUnits="userSpaceOnUse">
<stop stop-color="#F57069"/>
<stop offset="0.4991" stop-color="#ED6762"/>
<stop offset="1" stop-color="#DF5857"/>
</linearGradient>
</defs>
</svg>
